<svg width="1600" height="900" viewBox="0 0 1600 900" xmlns="http://www.w3.org/2000/svg" role="img" aria-label="Blog illustration background">
  <defs>
    <linearGradient id="bg" x1="0" y1="0" x2="1" y2="1">
      <stop offset="0" stop-color="#e9f0ff"/>
      <stop offset="1" stop-color="#fdf6e8"/>
    </linearGradient>
    <linearGradient id="card" x1="0" y1="0" x2="0" y2="1">
      <stop offset="0" stop-color="#ffffff"/>
      <stop offset="1" stop-color="#f7fbff"/>
    </linearGradient>
  </defs>

  <rect width="1600" height="900" fill="url(#bg)"/>
  <circle cx="1300" cy="170" r="180" fill="#d9e7ff" opacity="0.7"/>
  <circle cx="260" cy="740" r="220" fill="#ffe9c7" opacity="0.8"/>

  <g transform="translate(350,170)">
    <rect width="900" height="560" rx="24" fill="url(#card)" stroke="#dbe5f5" stroke-width="3"/>
    <rect x="40" y="44" width="820" height="66" rx="12" fill="#edf3ff"/>
    <circle cx="78" cy="77" r="14" fill="#7da7f8"/>
    <circle cx="120" cy="77" r="14" fill="#f9c873"/>
    <circle cx="162" cy="77" r="14" fill="#90d5b7"/>

    <rect x="40" y="148" width="420" height="26" rx="8" fill="#9bb7ea"/>
    <rect x="40" y="196" width="300" height="18" rx="7" fill="#c9d8f5"/>
    <rect x="40" y="226" width="360" height="18" rx="7" fill="#d5e1f9"/>

    <rect x="40" y="292" width="220" height="210" rx="14" fill="#f4f8ff" stroke="#dfe8fa"/>
    <rect x="300" y="292" width="220" height="210" rx="14" fill="#fef8ec" stroke="#f1e3c7"/>
    <rect x="560" y="292" width="300" height="210" rx="14" fill="#f5f9ff" stroke="#dfe8fa"/>

    <rect x="74" y="330" width="150" height="16" rx="7" fill="#9fbcec"/>
    <rect x="74" y="360" width="120" height="12" rx="6" fill="#c6d8f7"/>
    <rect x="74" y="382" width="130" height="12" rx="6" fill="#d3e1fa"/>

    <rect x="334" y="330" width="150" height="16" rx="7" fill="#e7bf71"/>
    <rect x="334" y="360" width="130" height="12" rx="6" fill="#f3dcae"/>
    <rect x="334" y="382" width="142" height="12" rx="6" fill="#faeac9"/>

    <rect x="596" y="330" width="220" height="16" rx="7" fill="#95c9b2"/>
    <rect x="596" y="360" width="190" height="12" rx="6" fill="#cbe8dc"/>
    <rect x="596" y="382" width="170" height="12" rx="6" fill="#dcf1e8"/>
  </g>
</svg>
